<svg id="svg" version="1.1" xmlns="http://www.w3.org/2000/svg" xmlns:xlink="http://www.w3.org/1999/xlink" width="400" height="400" viewBox="0, 0, 400,400"><g id="svgg"><path id="path0" d="M173.600 38.000 C 173.050 38.176,170.905 38.338,168.833 38.360 C 166.761 38.382,163.971 38.567,162.633 38.772 C 161.295 38.977,158.580 39.355,156.600 39.613 C 152.659 40.127,143.935 41.740,141.400 42.423 C 140.520 42.660,139.260 42.998,138.600 43.173 C 133.570 44.509,127.574 46.349,126.705 46.822 C 126.323 47.030,125.736 47.200,125.400 47.200 C 125.064 47.200,124.477 47.359,124.095 47.553 C 123.713 47.748,122.905 48.108,122.300 48.353 C 121.695 48.599,120.795 48.975,120.300 49.189 C 119.805 49.403,118.413 49.957,117.207 50.420 C 114.748 51.364,112.568 52.346,107.600 54.750 C 104.478 56.260,103.006 57.044,97.463 60.142 C 82.395 68.567,63.125 85.275,52.200 99.389 C 51.540 100.241,50.528 101.493,49.950 102.169 C 48.656 103.687,39.653 117.052,39.164 118.181 C 38.970 118.631,38.177 120.080,37.404 121.400 C 33.644 127.817,28.394 139.362,26.034 146.400 C 25.554 147.830,24.991 149.313,24.781 149.695 C 24.571 150.077,24.400 150.664,24.400 151.000 C 24.400 151.336,24.238 151.923,24.039 152.305 C 23.725 152.910,22.258 158.120,21.197 162.400 C 16.011 183.328,15.115 208.570,18.841 228.800 C 19.064 230.010,19.430 231.990,19.653 233.200 C 19.877 234.410,20.226 236.075,20.430 236.900 C 21.381 240.755,21.613 241.655,22.618 245.400 C 23.735 249.559,24.249 251.244,24.814 252.600 C 24.997 253.040,25.543 254.570,26.027 256.000 C 26.950 258.732,28.838 263.631,29.880 266.000 C 31.040 268.636,36.928 280.600,37.164 280.800 C 37.406 281.005,37.742 281.576,39.502 284.768 C 41.451 288.304,50.682 301.598,52.023 302.800 C 52.146 302.910,52.512 303.389,52.836 303.865 C 55.190 307.316,66.672 319.291,71.800 323.642 C 72.680 324.389,73.646 325.233,73.947 325.518 C 74.728 326.258,82.007 332.084,83.200 332.924 C 83.750 333.311,86.270 335.002,88.800 336.682 C 91.330 338.361,93.460 339.885,93.533 340.068 C 93.607 340.251,93.817 340.400,94.000 340.400 C 94.184 340.400,95.680 341.196,97.326 342.169 C 102.878 345.452,110.153 349.015,119.800 353.177 C 121.341 353.842,125.030 355.149,128.400 356.224 C 130.270 356.821,132.160 357.445,132.600 357.612 C 133.779 358.058,138.965 359.416,142.400 360.179 C 148.072 361.437,148.607 361.548,151.100 361.973 C 164.853 364.321,159.077 364.200,257.600 364.200 C 350.798 364.200,350.667 364.202,354.200 362.798 C 354.640 362.624,355.630 362.258,356.400 361.987 C 368.981 357.547,378.723 346.318,382.068 332.400 C 383.195 327.713,382.686 316.753,381.129 312.200 C 380.301 309.775,380.112 309.333,378.424 305.876 C 372.420 293.575,359.997 284.948,346.633 283.801 C 345.111 283.671,343.716 283.471,343.533 283.358 C 343.350 283.245,343.197 263.768,343.193 240.076 C 343.186 194.062,343.175 193.792,341.189 187.428 C 337.473 175.525,329.277 167.038,316.200 161.554 C 309.366 158.688,295.999 158.684,289.000 161.546 C 282.308 164.282,276.315 168.320,272.742 172.500 C 271.567 173.875,270.498 175.090,270.368 175.200 C 269.811 175.671,267.173 180.110,266.057 182.454 C 263.310 188.228,262.530 191.891,261.981 201.600 C 261.106 217.085,259.052 225.686,253.475 237.233 C 244.680 255.439,228.138 270.648,209.577 277.594 C 207.720 278.289,205.840 279.000,205.400 279.174 C 197.090 282.451,179.506 284.035,168.600 282.490 C 164.479 281.906,155.187 279.691,154.620 279.157 C 154.411 278.961,153.862 278.800,153.400 278.800 C 152.938 278.800,152.389 278.657,152.180 278.482 C 151.971 278.307,151.080 277.926,150.200 277.637 C 131.222 271.392,111.193 251.508,103.625 231.400 C 103.128 230.080,102.578 228.640,102.401 228.200 C 96.138 212.571,96.473 188.980,103.199 172.200 C 103.375 171.760,103.752 170.770,104.036 170.000 C 110.878 151.476,129.157 133.256,149.000 125.182 C 150.773 124.461,154.672 123.083,155.800 122.779 C 164.116 120.537,165.824 120.216,172.600 119.618 C 186.743 118.369,187.203 118.303,191.800 116.877 C 203.728 113.175,214.185 102.431,217.977 89.980 C 220.267 82.460,219.934 71.291,217.220 64.600 C 212.233 52.306,204.041 44.257,192.400 40.211 C 186.803 38.266,176.539 37.059,173.600 38.000 M296.800 38.252 C 283.912 39.461,270.874 49.011,265.201 61.399 C 255.308 82.997,265.177 107.022,287.800 116.415 C 288.240 116.598,289.230 116.927,290.000 117.146 C 290.770 117.366,292.210 117.783,293.200 118.073 C 295.700 118.805,307.911 118.789,310.600 118.050 C 325.223 114.032,334.675 105.730,340.028 92.200 C 343.056 84.546,343.052 72.076,340.020 64.600 C 336.572 56.101,331.903 50.065,324.866 45.009 C 323.787 44.234,322.716 43.600,322.486 43.600 C 322.255 43.600,322.007 43.457,321.933 43.281 C 321.624 42.541,314.822 39.873,310.634 38.849 C 308.560 38.341,299.851 37.966,296.800 38.252 M174.400 159.442 C 173.410 159.529,171.925 159.780,171.100 160.000 C 170.275 160.220,168.835 160.601,167.900 160.846 C 152.443 164.897,140.630 179.181,138.829 196.000 C 136.965 213.404,148.160 231.660,164.200 237.372 C 165.300 237.764,166.560 238.232,167.000 238.412 C 168.519 239.034,173.116 239.852,177.347 240.254 C 185.096 240.989,196.384 237.503,203.488 232.181 C 225.444 215.730,224.680 181.931,202.000 166.429 C 198.709 164.180,194.510 162.000,193.468 162.000 C 193.189 162.000,192.789 161.851,192.580 161.670 C 192.222 161.358,191.250 161.053,187.352 160.031 C 185.564 159.562,177.308 159.187,174.400 159.442 " stroke="none" fill="#0c0c0c" fill-rule="evenodd"></path><path id="path1" d="M0.000 200.000 L 0.000 400.000 200.000 400.000 L 400.000 400.000 400.000 200.000 L 400.000 0.000 200.000 0.000 L 0.000 0.000 0.000 200.000 M184.400 37.628 C 186.270 37.864,188.113 38.225,188.495 38.429 C 188.877 38.633,189.606 38.800,190.115 38.800 C 190.624 38.800,191.211 38.949,191.420 39.130 C 191.629 39.312,192.610 39.715,193.600 40.025 C 204.217 43.355,214.627 54.258,218.108 65.694 C 219.797 71.243,220.000 72.605,220.000 78.400 C 220.000 84.212,219.801 85.540,218.082 91.200 C 213.371 106.709,197.358 119.167,182.100 119.194 C 180.285 119.197,178.800 119.365,178.800 119.566 C 178.800 119.767,176.775 120.026,174.300 120.141 C 166.710 120.495,153.335 123.332,151.741 124.926 C 151.590 125.077,151.231 125.200,150.943 125.200 C 150.432 125.200,147.203 126.597,142.800 128.724 C 134.428 132.767,123.138 141.749,117.315 149.000 C 114.814 152.114,112.000 156.042,112.000 156.418 C 112.000 156.628,111.820 156.800,111.600 156.800 C 111.380 156.800,111.200 156.977,111.200 157.192 C 111.200 157.408,110.566 158.575,109.791 159.786 C 108.208 162.262,104.896 169.166,103.836 172.200 C 103.085 174.352,102.747 175.236,102.081 176.800 C 101.846 177.350,101.567 178.340,101.460 179.000 C 101.353 179.660,101.062 180.920,100.813 181.800 C 98.589 189.659,98.027 204.794,99.588 214.800 C 100.565 221.067,103.115 229.413,105.636 234.594 C 106.276 235.911,106.800 237.131,106.800 237.305 C 106.800 237.479,107.790 239.264,109.000 241.271 C 110.210 243.278,111.200 245.007,111.200 245.114 C 111.200 245.440,116.490 252.485,118.172 254.400 C 123.013 259.909,131.847 267.501,136.325 270.000 C 136.916 270.330,137.490 270.690,137.600 270.800 C 138.482 271.682,146.285 275.493,150.244 276.976 C 152.420 277.790,154.513 278.624,154.895 278.829 C 155.277 279.033,156.031 279.200,156.571 279.200 C 157.111 279.200,157.652 279.360,157.773 279.556 C 157.894 279.751,158.579 280.004,159.296 280.117 C 160.013 280.230,161.860 280.587,163.400 280.910 C 164.940 281.233,167.508 281.700,169.107 281.948 C 172.611 282.493,187.001 282.548,190.033 282.029 C 191.225 281.825,193.460 281.448,195.000 281.191 C 196.540 280.934,198.340 280.573,199.000 280.389 C 199.660 280.205,201.010 279.839,202.000 279.576 C 225.400 273.362,247.714 253.086,255.669 230.808 C 256.102 229.594,256.648 228.150,256.882 227.600 C 257.749 225.560,257.937 224.901,258.931 220.400 C 260.329 214.076,260.676 211.467,261.381 202.000 C 262.088 192.498,262.346 190.344,262.841 189.820 C 263.038 189.611,263.200 189.060,263.200 188.596 C 263.200 187.821,264.301 184.751,265.637 181.800 C 270.704 170.605,282.907 161.464,295.809 159.198 C 301.553 158.189,312.723 159.223,317.000 161.160 C 321.391 163.148,325.100 165.071,325.600 165.619 C 325.710 165.740,326.430 166.265,327.200 166.787 C 329.454 168.314,334.561 173.600,336.295 176.200 C 339.878 181.571,341.550 185.543,343.159 192.506 C 343.466 193.832,343.600 207.830,343.600 238.528 L 343.600 282.645 347.300 283.149 C 349.335 283.426,351.313 283.821,351.695 284.026 C 352.077 284.232,352.831 284.400,353.371 284.400 C 353.911 284.400,354.464 284.580,354.600 284.800 C 354.736 285.020,355.196 285.200,355.622 285.200 C 356.874 285.200,362.261 287.855,365.346 289.993 C 372.278 294.797,377.822 301.752,380.814 309.400 C 384.056 317.684,384.051 330.596,380.803 338.600 C 375.490 351.691,364.619 361.088,351.200 364.188 C 348.099 364.904,171.397 365.101,164.400 364.397 C 159.549 363.908,154.800 363.282,152.000 362.762 C 150.790 362.537,148.990 362.256,148.000 362.138 C 147.010 362.019,146.029 361.760,145.820 361.561 C 145.611 361.363,144.994 361.200,144.448 361.200 C 143.903 361.200,142.904 361.029,142.228 360.820 C 141.553 360.612,138.480 359.777,135.400 358.965 C 132.320 358.153,129.629 357.334,129.420 357.144 C 129.211 356.955,128.637 356.800,128.144 356.800 C 127.651 356.800,127.136 356.620,127.000 356.400 C 126.864 356.180,126.479 356.000,126.145 356.000 C 125.625 356.000,122.502 354.892,119.300 353.571 C 118.805 353.367,117.995 353.038,117.500 352.839 C 113.472 351.224,103.103 346.161,98.800 343.707 C 95.384 341.759,94.120 340.983,92.962 340.121 C 92.281 339.614,91.589 339.200,91.423 339.200 C 91.184 339.200,86.037 335.720,84.200 334.316 C 64.911 319.575,54.299 308.457,42.637 290.770 C 41.415 288.916,40.277 287.220,40.108 287.000 C 39.938 286.780,39.530 286.060,39.201 285.400 C 38.871 284.740,38.511 284.110,38.401 284.000 C 38.101 283.702,37.252 282.183,35.268 278.400 C 31.355 270.938,29.248 266.349,26.823 260.000 C 26.108 258.130,25.383 256.240,25.211 255.800 C 24.765 254.659,22.976 248.928,22.402 246.800 C 22.135 245.810,21.755 244.587,21.558 244.081 C 21.361 243.576,21.200 242.731,21.200 242.205 C 21.200 241.678,21.039 241.148,20.842 241.026 C 20.645 240.905,20.392 240.129,20.279 239.303 C 20.165 238.476,19.602 235.550,19.026 232.800 C 16.999 223.112,16.198 214.135,16.209 201.200 C 16.220 187.394,17.240 177.021,19.612 166.600 C 19.863 165.500,20.161 163.924,20.276 163.097 C 20.391 162.271,20.645 161.495,20.842 161.374 C 21.039 161.252,21.200 160.722,21.200 160.195 C 21.200 159.669,21.361 158.824,21.558 158.319 C 21.755 157.813,22.141 156.590,22.414 155.600 C 23.654 151.115,27.104 141.238,28.772 137.400 C 33.359 126.841,44.692 107.145,48.480 103.148 C 48.766 102.847,49.537 101.880,50.193 101.000 C 57.160 91.658,70.255 78.651,80.562 70.834 C 85.431 67.142,94.939 60.822,98.400 58.978 C 99.610 58.334,100.690 57.702,100.800 57.574 C 100.910 57.446,103.880 55.943,107.400 54.233 C 114.708 50.683,114.649 50.710,117.600 49.580 C 118.810 49.117,120.340 48.492,121.000 48.191 C 122.271 47.613,131.763 44.463,134.800 43.612 C 135.790 43.334,137.050 42.960,137.600 42.781 C 138.150 42.601,139.860 42.167,141.400 41.816 C 142.940 41.464,144.560 41.082,145.000 40.965 C 145.440 40.849,146.880 40.578,148.200 40.363 C 149.520 40.148,151.590 39.790,152.800 39.568 C 162.802 37.732,177.887 36.806,184.400 37.628 M307.200 37.628 C 309.070 37.864,310.913 38.225,311.295 38.429 C 311.677 38.633,312.406 38.800,312.915 38.800 C 313.424 38.800,314.011 38.943,314.220 39.118 C 314.429 39.293,315.320 39.675,316.200 39.967 C 336.146 46.578,347.493 69.864,340.996 90.850 C 339.421 95.934,336.529 101.269,333.486 104.703 C 331.136 107.355,327.027 111.200,326.543 111.200 C 326.281 111.200,326.007 111.345,325.933 111.523 C 325.588 112.360,320.410 115.288,316.600 116.802 C 305.318 121.282,291.081 119.844,279.794 113.083 C 272.207 108.538,262.402 95.145,262.400 89.324 C 262.400 88.842,262.243 88.350,262.052 88.232 C 261.456 87.864,261.074 84.025,261.074 78.400 C 261.074 72.775,261.456 68.936,262.052 68.568 C 262.243 68.450,262.400 67.948,262.400 67.452 C 262.400 66.636,263.426 63.742,264.829 60.600 C 265.124 59.940,265.841 58.680,266.423 57.800 C 267.005 56.920,267.553 56.000,267.641 55.756 C 267.965 54.852,270.283 52.117,273.200 49.197 C 282.103 40.285,294.590 36.036,307.200 37.628 M189.600 159.962 C 192.872 160.897,192.998 160.946,196.800 162.768 C 205.646 167.009,211.970 173.375,216.298 182.400 C 217.819 185.570,218.391 187.282,219.544 192.106 C 220.122 194.521,220.138 204.578,219.569 207.094 C 217.091 218.046,211.974 226.399,204.183 232.214 C 203.312 232.864,202.510 233.511,202.400 233.651 C 202.290 233.792,201.550 234.271,200.755 234.716 C 199.960 235.161,198.970 235.717,198.555 235.952 C 196.693 237.006,193.387 238.400,192.749 238.400 C 192.363 238.400,191.949 238.559,191.829 238.754 C 191.708 238.949,191.113 239.206,190.505 239.325 C 189.897 239.445,188.050 239.825,186.400 240.171 C 182.634 240.959,175.866 240.980,172.200 240.214 C 170.660 239.892,168.860 239.519,168.200 239.384 C 167.540 239.250,166.550 238.949,166.000 238.716 C 165.450 238.483,164.640 238.160,164.200 237.998 C 151.256 233.229,141.278 221.022,138.537 206.600 C 138.061 204.095,138.193 194.856,138.742 192.200 C 139.016 190.880,139.340 189.213,139.464 188.496 C 139.587 187.779,139.849 187.094,140.044 186.973 C 140.240 186.852,140.400 186.485,140.400 186.158 C 140.400 183.969,145.529 175.549,149.290 171.564 C 153.494 167.109,161.691 161.600,164.116 161.600 C 164.404 161.600,164.811 161.457,165.020 161.282 C 167.892 158.876,182.967 158.066,189.600 159.962 " stroke="none" fill="#fbfbfb" fill-rule="evenodd"></path><path id="path2" d="M169.600 38.000 L 166.600 38.256 169.600 38.288 C 171.250 38.306,173.050 38.176,173.600 38.000 L 174.600 37.680 173.600 37.712 C 173.050 37.730,171.250 37.859,169.600 38.000 M178.833 37.749 C 178.925 37.830,180.530 37.996,182.400 38.117 C 184.870 38.276,185.308 38.243,184.000 37.998 C 182.168 37.653,178.530 37.478,178.833 37.749 M297.000 37.957 C 296.120 38.091,298.370 38.200,302.000 38.200 C 305.799 38.200,307.836 38.085,306.800 37.930 C 304.636 37.605,299.218 37.620,297.000 37.957 M187.400 38.800 C 187.840 38.989,188.560 39.138,189.000 39.132 C 189.643 39.123,189.604 39.057,188.800 38.800 C 187.432 38.362,186.381 38.362,187.400 38.800 M310.200 38.800 C 310.640 38.989,311.360 39.138,311.800 39.132 C 312.443 39.123,312.404 39.057,311.600 38.800 C 310.232 38.362,309.181 38.362,310.200 38.800 M159.100 39.082 C 159.595 39.178,160.405 39.178,160.900 39.082 C 161.395 38.987,160.990 38.909,160.000 38.909 C 159.010 38.909,158.605 38.987,159.100 39.082 M153.300 39.876 C 153.685 39.976,154.315 39.976,154.700 39.876 C 155.085 39.775,154.770 39.693,154.000 39.693 C 153.230 39.693,152.915 39.775,153.300 39.876 M147.400 40.810 C 146.866 41.047,147.198 41.086,148.400 40.927 C 149.390 40.796,150.275 40.624,150.367 40.544 C 150.714 40.243,148.164 40.472,147.400 40.810 M285.200 41.200 C 283.365 42.205,283.850 42.210,286.056 41.209 C 287.015 40.774,287.530 40.421,287.200 40.426 C 286.870 40.430,285.970 40.778,285.200 41.200 M143.800 41.600 C 142.781 42.038,143.832 42.038,145.200 41.600 C 146.004 41.343,146.043 41.277,145.400 41.268 C 144.960 41.262,144.240 41.411,143.800 41.600 M137.200 43.200 C 136.376 43.464,136.341 43.526,137.000 43.554 C 137.440 43.573,138.070 43.413,138.400 43.200 C 139.101 42.747,138.614 42.747,137.200 43.200 M134.400 44.000 C 133.576 44.264,133.541 44.326,134.200 44.354 C 134.640 44.373,135.270 44.213,135.600 44.000 C 136.301 43.547,135.814 43.547,134.400 44.000 M275.561 47.340 C 273.932 48.737,272.240 50.312,271.800 50.840 C 271.360 51.368,271.990 50.898,273.200 49.795 C 274.410 48.693,276.210 47.121,277.200 46.303 C 278.190 45.485,278.892 44.812,278.761 44.808 C 278.630 44.804,277.190 45.943,275.561 47.340 M327.222 46.700 C 327.234 46.865,327.819 47.438,328.522 47.974 L 329.800 48.949 328.625 47.674 C 327.403 46.349,327.185 46.197,327.222 46.700 M119.000 49.414 C 117.995 49.898,117.963 49.953,118.800 49.751 C 119.350 49.619,119.971 49.350,120.180 49.155 C 120.698 48.671,120.414 48.733,119.000 49.414 M210.374 52.700 C 211.337 53.855,212.202 54.800,212.296 54.800 C 212.568 54.800,210.104 51.782,209.326 51.162 C 208.939 50.853,209.410 51.545,210.374 52.700 M333.174 52.700 C 334.137 53.855,335.002 54.800,335.096 54.800 C 335.368 54.800,332.904 51.782,332.126 51.162 C 331.739 50.853,332.210 51.545,333.174 52.700 M270.000 53.000 C 269.483 53.550,269.227 53.994,269.430 53.987 C 269.772 53.976,271.421 52.000,271.088 52.000 C 271.006 52.000,270.517 52.450,270.000 53.000 M109.200 53.600 C 108.430 54.022,107.980 54.366,108.200 54.366 C 108.420 54.366,109.230 54.022,110.000 53.600 C 110.770 53.178,111.220 52.834,111.000 52.834 C 110.780 52.834,109.970 53.178,109.200 53.600 M267.753 56.100 C 266.376 58.436,266.286 58.635,266.987 57.800 C 267.800 56.832,268.500 55.600,268.238 55.600 C 268.133 55.600,267.915 55.825,267.753 56.100 M101.400 57.600 C 99.836 58.636,100.392 58.637,102.090 57.601 C 102.811 57.162,103.220 56.804,103.000 56.804 C 102.780 56.805,102.060 57.163,101.400 57.600 M92.500 62.846 C 91.137 63.719,90.695 64.306,91.900 63.643 C 92.818 63.139,94.256 62.027,94.000 62.019 C 93.890 62.016,93.215 62.388,92.500 62.846 M262.649 67.015 C 262.512 67.373,262.415 67.966,262.434 68.333 C 262.453 68.700,262.627 68.469,262.821 67.820 C 263.198 66.558,263.065 65.933,262.649 67.015 M218.662 69.800 C 218.796 70.680,218.972 71.475,219.053 71.567 C 219.356 71.910,219.129 69.768,218.781 69.000 C 218.529 68.442,218.493 68.685,218.662 69.800 M341.462 69.800 C 341.596 70.680,341.772 71.475,341.853 71.567 C 342.156 71.910,341.929 69.768,341.581 69.000 C 341.329 68.442,341.293 68.685,341.462 69.800 M81.400 70.644 L 79.800 72.076 81.500 70.804 C 82.963 69.710,83.491 69.183,83.100 69.206 C 83.045 69.209,82.280 69.856,81.400 70.644 M261.415 73.415 C 261.261 74.654,261.217 75.750,261.319 75.852 C 261.420 75.954,261.630 75.023,261.785 73.785 C 261.939 72.546,261.983 71.450,261.881 71.348 C 261.780 71.246,261.570 72.177,261.415 73.415 M75.389 75.431 L 73.400 77.261 75.500 75.568 C 77.384 74.049,77.838 73.600,77.489 73.600 C 77.428 73.600,76.483 74.424,75.389 75.431 M219.744 78.400 C 219.744 80.490,219.812 81.345,219.894 80.300 C 219.976 79.255,219.976 77.545,219.894 76.500 C 219.812 75.455,219.744 76.310,219.744 78.400 M342.544 78.400 C 342.544 80.490,342.612 81.345,342.694 80.300 C 342.776 79.255,342.776 77.545,342.694 76.500 C 342.612 75.455,342.544 76.310,342.544 78.400 M67.986 81.900 L 65.800 84.200 68.100 82.014 C 70.237 79.982,70.583 79.600,70.286 79.600 C 70.224 79.600,69.189 80.635,67.986 81.900 M261.273 81.400 C 261.258 82.060,261.395 83.320,261.577 84.200 C 262.013 86.306,262.050 84.414,261.620 82.000 C 261.380 80.650,261.293 80.500,261.273 81.400 M61.792 88.100 L 58.200 91.800 61.900 88.208 C 65.336 84.872,65.782 84.400,65.492 84.400 C 65.432 84.400,63.767 86.065,61.792 88.100 M56.975 93.300 L 55.800 94.600 57.100 93.425 C 57.815 92.779,58.400 92.194,58.400 92.125 C 58.400 91.816,58.070 92.088,56.975 93.300 M54.426 96.122 L 53.451 97.400 54.726 96.225 C 56.051 95.003,56.203 94.785,55.700 94.822 C 55.535 94.834,54.962 95.419,54.426 96.122 M214.491 98.134 C 213.771 99.490,213.470 100.240,213.822 99.800 C 214.605 98.822,216.104 95.971,215.928 95.795 C 215.858 95.725,215.211 96.778,214.491 98.134 M337.291 98.134 C 336.571 99.490,336.270 100.240,336.622 99.800 C 337.405 98.822,338.904 95.971,338.728 95.795 C 338.658 95.725,338.011 96.778,337.291 98.134 M265.949 97.800 C 266.165 98.240,266.634 98.960,266.993 99.400 L 267.644 100.200 267.251 99.400 C 267.035 98.960,266.566 98.240,266.207 97.800 L 265.556 97.000 265.949 97.800 M52.400 98.600 C 51.883 99.150,51.627 99.594,51.830 99.587 C 52.172 99.576,53.821 97.600,53.488 97.600 C 53.406 97.600,52.917 98.050,52.400 98.600 M49.983 101.700 C 49.240 102.635,48.948 103.146,49.335 102.836 C 50.063 102.251,51.777 100.000,51.494 100.000 C 51.406 100.000,50.726 100.765,49.983 101.700 M210.374 104.100 C 209.410 105.255,208.939 105.947,209.326 105.638 C 210.104 105.018,212.568 102.000,212.296 102.000 C 212.202 102.000,211.337 102.945,210.374 104.100 M333.174 104.100 C 332.210 105.255,331.739 105.947,332.126 105.638 C 332.904 105.018,335.368 102.000,335.096 102.000 C 335.002 102.000,334.137 102.945,333.174 104.100 M45.898 107.300 C 43.210 111.183,42.390 112.494,43.082 111.800 C 43.753 111.127,48.873 103.600,48.660 103.600 C 48.550 103.600,47.307 105.265,45.898 107.300 M272.400 106.555 C 274.396 108.673,278.194 111.770,280.500 113.161 C 282.976 114.654,282.191 113.835,279.442 112.057 C 278.035 111.147,275.470 109.107,273.742 107.524 C 271.915 105.850,271.353 105.445,272.400 106.555 M328.175 109.300 L 327.000 110.600 328.300 109.425 C 329.015 108.779,329.600 108.194,329.600 108.125 C 329.600 107.816,329.270 108.088,328.175 109.300 M40.553 115.300 C 39.176 117.636,39.086 117.835,39.787 117.000 C 40.600 116.032,41.300 114.800,41.038 114.800 C 40.933 114.800,40.715 115.025,40.553 115.300 M195.600 115.400 C 195.050 115.714,194.780 115.972,195.000 115.972 C 195.220 115.972,195.850 115.714,196.400 115.400 C 196.950 115.086,197.220 114.828,197.000 114.828 C 196.780 114.828,196.150 115.086,195.600 115.400 M318.400 115.400 C 317.850 115.714,317.580 115.972,317.800 115.972 C 318.020 115.972,318.650 115.714,319.200 115.400 C 319.750 115.086,320.020 114.828,319.800 114.828 C 319.580 114.828,318.950 115.086,318.400 115.400 M187.800 118.000 C 187.296 118.217,187.222 118.344,187.600 118.344 C 187.930 118.344,188.560 118.189,189.000 118.000 C 189.504 117.783,189.578 117.656,189.200 117.656 C 188.870 117.656,188.240 117.811,187.800 118.000 M310.600 118.000 C 310.096 118.217,310.022 118.344,310.400 118.344 C 310.730 118.344,311.360 118.189,311.800 118.000 C 312.304 117.783,312.378 117.656,312.000 117.656 C 311.670 117.656,311.040 117.811,310.600 118.000 M38.253 119.300 L 37.533 120.600 38.358 119.600 C 39.089 118.713,39.414 118.000,39.086 118.000 C 39.024 118.000,38.649 118.585,38.253 119.300 M296.200 118.829 C 296.860 118.981,299.470 119.106,302.000 119.106 C 307.878 119.107,306.923 118.892,300.200 118.701 C 297.340 118.620,295.540 118.677,296.200 118.829 M179.900 119.089 C 180.615 119.178,181.785 119.178,182.500 119.089 C 183.215 119.001,182.630 118.928,181.200 118.928 C 179.770 118.928,179.185 119.001,179.900 119.089 M176.305 119.483 C 176.802 119.579,177.522 119.575,177.905 119.475 C 178.287 119.375,177.880 119.296,177.000 119.301 C 176.120 119.305,175.807 119.387,176.305 119.483 M170.300 119.882 C 170.795 119.978,171.605 119.978,172.100 119.882 C 172.595 119.787,172.190 119.709,171.200 119.709 C 170.210 119.709,169.805 119.787,170.300 119.882 M163.400 120.803 C 162.885 121.026,163.313 121.067,164.600 120.918 C 165.700 120.791,166.675 120.623,166.767 120.544 C 167.114 120.245,164.164 120.472,163.400 120.803 M160.200 121.600 C 159.696 121.817,159.622 121.944,160.000 121.944 C 160.330 121.944,160.960 121.789,161.400 121.600 C 161.904 121.383,161.978 121.256,161.600 121.256 C 161.270 121.256,160.640 121.411,160.200 121.600 M31.472 132.219 C 30.532 134.189,30.664 134.524,31.647 132.662 C 32.093 131.816,32.387 131.054,32.301 130.967 C 32.214 130.881,31.841 131.444,31.472 132.219 M136.700 131.429 C 135.205 132.240,135.296 132.578,136.800 131.800 C 137.460 131.459,138.000 131.094,138.000 130.990 C 138.000 130.732,137.957 130.747,136.700 131.429 M133.722 133.429 L 132.600 134.458 133.900 133.554 C 134.615 133.057,135.200 132.593,135.200 132.525 C 135.200 132.209,134.758 132.480,133.722 133.429 M129.600 136.449 C 128.206 137.671,128.205 137.672,129.488 136.819 C 130.196 136.348,130.882 135.791,131.012 135.581 C 131.397 134.957,131.077 135.154,129.600 136.449 M123.600 141.639 L 119.800 145.270 123.700 141.772 C 127.185 138.647,127.849 137.988,127.500 138.005 C 127.445 138.007,125.690 139.643,123.600 141.639 M26.444 144.044 C 26.198 144.751,26.066 145.400,26.152 145.485 C 26.238 145.571,26.509 145.062,26.756 144.356 C 27.002 143.649,27.134 143.000,27.048 142.915 C 26.962 142.829,26.691 143.338,26.444 144.044 M118.575 146.900 L 117.400 148.200 118.700 147.025 C 119.912 145.930,120.184 145.600,119.875 145.600 C 119.806 145.600,119.221 146.185,118.575 146.900 M115.104 150.844 C 114.501 151.700,114.087 152.400,114.183 152.400 C 114.469 152.400,116.526 149.592,116.356 149.433 C 116.270 149.354,115.707 149.988,115.104 150.844 M23.029 154.229 C 22.881 154.815,22.838 155.372,22.932 155.466 C 23.027 155.560,23.224 155.158,23.371 154.571 C 23.519 153.985,23.562 153.428,23.468 153.334 C 23.373 153.240,23.176 153.642,23.029 154.229 M111.879 155.300 C 110.794 156.768,110.062 158.032,110.663 157.400 C 111.405 156.620,113.238 154.000,113.041 154.000 C 112.931 154.000,112.408 154.585,111.879 155.300 M109.453 159.300 L 108.733 160.600 109.558 159.600 C 110.289 158.713,110.614 158.000,110.286 158.000 C 110.224 158.000,109.849 158.585,109.453 159.300 M174.800 159.195 C 174.030 159.354,175.290 159.395,177.600 159.286 C 179.910 159.178,181.875 159.024,181.967 158.945 C 182.264 158.687,176.242 158.897,174.800 159.195 M298.400 159.153 C 297.630 159.289,299.501 159.400,302.558 159.400 C 305.851 159.400,307.481 159.287,306.558 159.123 C 304.696 158.792,300.351 158.808,298.400 159.153 M170.000 160.000 C 169.467 160.345,169.467 160.388,170.000 160.388 C 170.330 160.388,170.870 160.213,171.200 160.000 C 171.733 159.655,171.733 159.612,171.200 159.612 C 170.870 159.612,170.330 159.787,170.000 160.000 M187.000 160.000 C 187.440 160.189,188.070 160.344,188.400 160.344 C 188.778 160.344,188.704 160.217,188.200 160.000 C 187.760 159.811,187.130 159.656,186.800 159.656 C 186.422 159.656,186.496 159.783,187.000 160.000 M293.400 160.000 C 292.896 160.217,292.822 160.344,293.200 160.344 C 293.530 160.344,294.160 160.189,294.600 160.000 C 295.104 159.783,295.178 159.656,294.800 159.656 C 294.470 159.656,293.840 159.811,293.400 160.000 M310.600 160.000 C 311.040 160.189,311.670 160.344,312.000 160.344 C 312.378 160.344,312.304 160.217,311.800 160.000 C 311.360 159.811,310.730 159.656,310.400 159.656 C 310.022 159.656,310.096 159.783,310.600 160.000 M21.254 160.667 C 21.225 161.144,21.096 161.864,20.970 162.267 C 20.752 162.961,20.764 162.962,21.196 162.288 C 21.447 161.897,21.575 161.177,21.481 160.688 C 21.309 159.801,21.309 159.801,21.254 160.667 M283.100 163.829 C 281.549 164.670,281.725 164.961,283.300 164.159 C 284.808 163.393,285.075 163.194,284.567 163.216 C 284.365 163.225,283.705 163.501,283.100 163.829 M320.433 163.349 C 320.845 163.717,323.200 164.800,323.200 164.621 C 323.200 164.390,320.982 163.200,320.553 163.200 C 320.396 163.200,320.342 163.267,320.433 163.349 M20.250 164.850 C 19.917 166.517,20.240 166.840,20.600 165.200 C 20.752 164.509,20.793 163.859,20.691 163.758 C 20.589 163.656,20.391 164.147,20.250 164.850 M158.300 164.629 C 156.805 165.440,156.896 165.778,158.400 165.000 C 159.060 164.659,159.600 164.294,159.600 164.190 C 159.600 163.932,159.557 163.947,158.300 164.629 M105.482 166.611 C 104.892 167.815,104.494 168.800,104.598 168.800 C 104.867 168.800,106.884 164.751,106.705 164.571 C 106.623 164.489,106.073 165.407,105.482 166.611 M200.000 164.920 C 200.000 165.012,200.996 165.748,202.213 166.556 C 203.430 167.364,205.185 168.689,206.113 169.501 C 207.293 170.534,207.499 170.637,206.800 169.845 C 205.591 168.477,200.000 164.427,200.000 164.920 M323.600 164.924 C 323.600 165.017,324.365 165.598,325.300 166.215 C 326.235 166.832,326.789 167.080,326.531 166.768 C 326.034 166.167,323.600 164.636,323.600 164.924 M19.429 168.629 C 19.281 169.215,19.238 169.772,19.332 169.866 C 19.427 169.960,19.624 169.558,19.771 168.971 C 19.919 168.385,19.962 167.828,19.868 167.734 C 19.773 167.640,19.576 168.042,19.429 168.629 M152.654 168.633 C 152.023 169.187,151.587 169.720,151.683 169.816 C 151.779 169.913,152.374 169.454,153.004 168.796 C 154.396 167.343,154.216 167.259,152.654 168.633 M327.800 167.860 C 330.870 170.845,333.590 173.156,331.800 171.258 C 330.700 170.091,329.260 168.762,328.600 168.304 C 327.940 167.845,327.580 167.646,327.800 167.860 M272.832 171.894 C 271.494 173.376,270.400 174.733,270.400 174.908 C 270.400 175.084,270.974 174.547,271.676 173.714 C 272.377 172.881,273.584 171.525,274.357 170.700 C 275.130 169.875,275.650 169.200,275.513 169.200 C 275.376 169.200,274.169 170.413,272.832 171.894 M149.968 171.100 C 147.830 173.495,147.021 174.517,147.464 174.263 C 147.719 174.117,148.681 173.098,149.601 171.999 C 151.368 169.888,151.637 169.230,149.968 171.100 M208.000 171.325 C 208.000 171.394,208.585 171.979,209.300 172.625 L 210.600 173.800 209.425 172.500 C 208.330 171.288,208.000 171.016,208.000 171.325 M18.622 173.022 C 18.472 173.825,18.428 174.562,18.526 174.660 C 18.624 174.757,18.827 174.181,18.978 173.378 C 19.128 172.575,19.172 171.838,19.074 171.740 C 18.976 171.643,18.773 172.219,18.622 173.022 M212.255 176.600 C 214.544 180.013,215.223 180.777,213.950 178.506 C 213.427 177.574,212.410 176.134,211.689 175.306 C 210.711 174.183,210.855 174.512,212.255 176.600 M145.879 176.100 C 144.794 177.568,144.062 178.832,144.663 178.200 C 145.405 177.420,147.238 174.800,147.041 174.800 C 146.931 174.800,146.408 175.385,145.879 176.100 M101.449 176.615 C 101.312 176.973,101.215 177.566,101.234 177.933 C 101.253 178.300,101.427 178.069,101.621 177.420 C 101.998 176.158,101.865 175.533,101.449 176.615 M268.553 177.300 C 267.176 179.636,267.086 179.835,267.787 179.000 C 268.600 178.032,269.300 176.800,269.038 176.800 C 268.933 176.800,268.715 177.025,268.553 177.300 M17.701 179.800 C 17.705 180.680,17.787 180.993,17.883 180.495 C 17.979 179.998,17.975 179.278,17.875 178.895 C 17.775 178.513,17.696 178.920,17.701 179.800 M99.400 184.800 C 99.248 185.491,99.207 186.141,99.309 186.242 C 99.411 186.344,99.609 185.853,99.750 185.150 C 100.083 183.483,99.760 183.160,99.400 184.800 M16.657 189.745 C 16.492 192.574,16.438 194.971,16.537 195.070 C 16.785 195.318,17.327 186.336,17.122 185.373 C 17.032 184.948,16.823 186.915,16.657 189.745 M217.656 187.200 C 217.656 187.530,217.811 188.160,218.000 188.600 C 218.217 189.104,218.344 189.178,218.344 188.800 C 218.344 188.470,218.189 187.840,218.000 187.400 C 217.783 186.896,217.656 186.822,217.656 187.200 M341.444 188.200 C 341.773 189.671,342.002 189.990,341.994 188.967 C 341.991 188.545,341.805 187.930,341.582 187.600 C 341.285 187.162,341.248 187.324,341.444 188.200 M139.849 188.215 C 139.712 188.573,139.615 189.166,139.634 189.533 C 139.653 189.900,139.827 189.669,140.021 189.020 C 140.398 187.758,140.265 187.133,139.849 188.215 M98.669 189.156 C 98.521 189.895,98.420 190.883,98.444 191.350 C 98.468 191.817,98.647 191.390,98.842 190.400 C 99.037 189.410,99.138 188.423,99.067 188.206 C 98.996 187.990,98.817 188.417,98.669 189.156 M218.662 191.000 C 218.796 191.880,218.972 192.675,219.053 192.767 C 219.356 193.110,219.129 190.968,218.781 190.200 C 218.529 189.642,218.493 189.885,218.662 191.000 M342.493 192.400 C 342.493 193.170,342.575 193.485,342.676 193.100 C 342.776 192.715,342.776 192.085,342.676 191.700 C 342.575 191.315,342.493 191.630,342.493 192.400 M262.493 192.800 C 262.493 193.570,262.575 193.885,262.676 193.500 C 262.776 193.115,262.776 192.485,262.676 192.100 C 262.575 191.715,262.493 192.030,262.493 192.800 M138.893 193.600 C 138.893 194.370,138.975 194.685,139.076 194.300 C 139.176 193.915,139.176 193.285,139.076 192.900 C 138.975 192.515,138.893 192.830,138.893 193.600 M97.809 198.100 C 97.663 200.135,97.696 203.240,97.884 205.000 C 98.185 207.828,98.227 207.398,98.242 201.300 C 98.262 193.442,98.185 192.870,97.809 198.100 M138.501 196.600 C 138.505 197.480,138.587 197.793,138.683 197.295 C 138.779 196.798,138.775 196.078,138.675 195.695 C 138.575 195.313,138.496 195.720,138.501 196.600 M219.744 199.600 C 219.744 201.690,219.812 202.545,219.894 201.500 C 219.976 200.455,219.976 198.745,219.894 197.700 C 219.812 196.655,219.744 197.510,219.744 199.600 M343.298 240.676 C 343.244 264.038,343.341 283.240,343.514 283.347 C 343.687 283.453,344.992 283.634,346.414 283.747 L 349.000 283.954 346.302 283.530 L 343.604 283.107 343.500 240.653 L 343.396 198.200 343.298 240.676 M261.678 201.400 C 261.632 202.720,261.512 205.060,261.410 206.600 L 261.226 209.400 261.626 207.200 C 261.846 205.990,261.967 203.650,261.894 202.000 C 261.768 199.149,261.757 199.119,261.678 201.400 M138.480 202.600 C 138.468 203.260,138.603 204.610,138.780 205.600 C 139.016 206.928,139.105 207.085,139.120 206.200 C 139.132 205.540,138.997 204.190,138.820 203.200 C 138.584 201.872,138.495 201.715,138.480 202.600 M16.694 212.200 C 16.808 215.060,16.969 217.475,17.051 217.567 C 17.301 217.847,17.126 212.361,16.796 209.600 C 16.591 207.880,16.556 208.760,16.694 212.200 M139.268 208.400 C 139.288 209.439,139.918 211.146,139.932 210.200 C 139.938 209.760,139.789 209.040,139.600 208.600 C 139.389 208.110,139.261 208.032,139.268 208.400 M98.487 211.600 C 98.483 212.150,98.624 213.050,98.800 213.600 C 99.231 214.944,99.231 213.492,98.800 211.800 C 98.526 210.722,98.494 210.702,98.487 211.600 M260.854 212.000 C 260.819 212.550,260.696 213.450,260.583 214.000 L 260.377 215.000 260.807 214.015 C 261.043 213.474,261.165 212.574,261.078 212.015 L 260.920 211.000 260.854 212.000 M99.228 216.433 C 99.244 216.965,99.419 217.760,99.619 218.200 C 99.871 218.758,99.907 218.515,99.738 217.400 C 99.455 215.543,99.187 215.036,99.228 216.433 M259.829 217.829 C 259.681 218.415,259.651 218.984,259.761 219.094 C 259.871 219.204,260.081 218.815,260.229 218.229 C 260.376 217.642,260.406 217.073,260.296 216.963 C 260.186 216.853,259.976 217.242,259.829 217.829 M145.200 222.400 C 145.670 223.060,146.144 223.600,146.254 223.600 C 146.364 223.600,146.070 223.060,145.600 222.400 C 145.130 221.740,144.656 221.200,144.546 221.200 C 144.436 221.200,144.730 221.740,145.200 222.400 M17.693 222.800 C 17.693 223.570,17.775 223.885,17.876 223.500 C 17.976 223.115,17.976 222.485,17.876 222.100 C 17.775 221.715,17.693 222.030,17.693 222.800 M147.096 225.000 C 147.550 225.660,148.429 226.650,149.050 227.200 C 149.799 227.864,149.659 227.596,148.632 226.400 C 146.536 223.957,146.115 223.574,147.096 225.000 M257.728 225.873 C 256.798 228.877,256.789 228.977,257.604 227.226 C 258.058 226.250,258.378 225.203,258.315 224.899 C 258.252 224.596,257.987 225.034,257.728 225.873 M207.477 228.653 C 206.419 229.662,205.620 230.554,205.701 230.634 C 205.782 230.715,206.731 229.886,207.809 228.791 C 210.268 226.295,210.046 226.203,207.477 228.653 M18.480 228.200 C 18.480 228.640,18.624 229.450,18.800 230.000 C 19.054 230.792,19.120 230.833,19.120 230.200 C 19.120 229.760,18.976 228.950,18.800 228.400 C 18.546 227.608,18.480 227.567,18.480 228.200 M152.144 230.309 C 152.460 230.821,154.800 232.553,154.800 232.275 C 154.800 232.176,154.139 231.591,153.332 230.975 C 152.524 230.359,151.989 230.059,152.144 230.309 M19.256 232.800 C 19.256 233.130,19.411 233.760,19.600 234.200 C 19.817 234.704,19.944 234.778,19.944 234.400 C 19.944 234.070,19.789 233.440,19.600 233.000 C 19.383 232.496,19.256 232.422,19.256 232.800 M200.000 234.436 C 199.336 234.979,199.269 235.115,199.800 234.840 C 201.105 234.166,201.828 233.612,201.400 233.615 C 201.180 233.617,200.550 233.986,200.000 234.436 M158.000 234.579 C 158.000 234.689,158.540 235.059,159.200 235.400 C 159.860 235.741,160.400 235.931,160.400 235.821 C 160.400 235.711,159.860 235.341,159.200 235.000 C 158.540 234.659,158.000 234.469,158.000 234.579 M253.078 237.405 C 252.712 238.172,252.495 238.800,252.596 238.800 C 252.870 238.800,254.084 236.351,253.901 236.168 C 253.814 236.081,253.444 236.638,253.078 237.405 M20.244 237.400 C 20.573 238.871,20.802 239.190,20.794 238.167 C 20.791 237.745,20.605 237.130,20.382 236.800 C 20.085 236.362,20.048 236.524,20.244 237.400 M168.033 238.944 C 168.125 239.023,168.740 239.208,169.400 239.356 C 170.276 239.552,170.438 239.515,170.000 239.218 C 169.460 238.853,167.632 238.598,168.033 238.944 M188.400 239.218 C 187.962 239.515,188.124 239.552,189.000 239.356 C 190.471 239.027,190.790 238.798,189.767 238.806 C 189.345 238.809,188.730 238.995,188.400 239.218 M21.058 240.800 C 21.375 242.525,21.602 242.851,21.594 241.567 C 21.591 241.035,21.411 240.330,21.194 240.000 C 20.918 239.578,20.877 239.815,21.058 240.800 M172.600 240.000 C 173.260 240.168,174.250 240.309,174.800 240.313 L 175.800 240.320 174.800 240.000 C 174.250 239.824,173.260 239.683,172.600 239.687 L 171.400 239.695 172.600 240.000 M183.400 240.000 L 182.200 240.305 183.400 240.313 C 184.060 240.317,185.050 240.176,185.600 240.000 L 186.600 239.680 185.600 239.687 C 185.050 239.691,184.060 239.832,183.400 240.000 M108.524 241.800 C 108.862 242.460,109.438 243.360,109.804 243.800 C 110.170 244.240,110.065 243.880,109.570 243.000 C 108.480 241.058,107.664 240.122,108.524 241.800 M250.653 242.100 L 249.933 243.400 250.758 242.400 C 251.489 241.513,251.814 240.800,251.486 240.800 C 251.424 240.800,251.049 241.385,250.653 242.100 M110.749 245.400 C 110.965 245.840,111.434 246.560,111.793 247.000 L 112.444 247.800 112.051 247.000 C 111.835 246.560,111.366 245.840,111.007 245.400 L 110.356 244.600 110.749 245.400 M22.856 247.200 C 22.856 247.530,23.011 248.160,23.200 248.600 C 23.417 249.104,23.544 249.178,23.544 248.800 C 23.544 248.470,23.389 247.840,23.200 247.400 C 22.983 246.896,22.856 246.822,22.856 247.200 M113.375 249.332 C 113.991 250.139,114.576 250.800,114.675 250.800 C 114.953 250.800,113.221 248.460,112.709 248.144 C 112.459 247.989,112.759 248.524,113.375 249.332 M244.800 250.800 C 244.103 251.680,243.683 252.393,243.866 252.385 C 244.195 252.370,246.547 249.200,246.230 249.200 C 246.140 249.200,245.497 249.920,244.800 250.800 M115.914 252.614 C 116.584 253.502,118.632 255.769,120.466 257.652 C 122.300 259.535,122.716 259.888,121.391 258.438 C 120.066 256.987,118.018 254.720,116.840 253.400 C 115.662 252.080,115.245 251.726,115.914 252.614 M238.826 257.719 C 235.590 261.173,235.160 261.723,237.356 259.600 C 240.102 256.945,243.910 252.768,243.537 252.819 C 243.462 252.829,241.342 255.034,238.826 257.719 M26.229 257.600 C 26.376 258.150,26.664 258.870,26.867 259.200 C 27.125 259.617,27.157 259.495,26.971 258.800 C 26.824 258.250,26.536 257.530,26.333 257.200 C 26.075 256.783,26.043 256.905,26.229 257.600 M126.400 263.400 C 127.146 264.170,127.847 264.800,127.957 264.800 C 128.067 264.800,127.546 264.170,126.800 263.400 C 126.054 262.630,125.353 262.000,125.243 262.000 C 125.133 262.000,125.654 262.630,126.400 263.400 M128.544 265.109 C 128.860 265.621,131.200 267.353,131.200 267.075 C 131.200 266.976,130.539 266.391,129.732 265.775 C 128.924 265.159,128.389 264.859,128.544 265.109 M32.400 272.153 C 32.400 272.582,33.590 274.800,33.821 274.800 C 33.931 274.800,33.723 274.215,33.359 273.500 C 32.617 272.040,32.400 271.736,32.400 272.153 M213.600 275.600 C 212.390 276.239,211.580 276.762,211.800 276.762 C 212.020 276.762,213.190 276.239,214.400 275.600 C 215.610 274.961,216.420 274.438,216.200 274.438 C 215.980 274.438,214.810 274.961,213.600 275.600 M201.600 280.000 C 200.776 280.264,200.741 280.326,201.400 280.354 C 201.840 280.373,202.470 280.213,202.800 280.000 C 203.501 279.547,203.014 279.547,201.600 280.000 M160.833 280.944 C 160.925 281.023,161.540 281.208,162.200 281.356 C 163.076 281.552,163.238 281.515,162.800 281.218 C 162.260 280.853,160.432 280.598,160.833 280.944 M164.433 281.749 C 164.525 281.831,165.500 282.001,166.600 282.128 C 167.949 282.284,168.274 282.249,167.600 282.020 C 166.601 281.680,164.118 281.468,164.433 281.749 M193.700 281.876 C 194.085 281.976,194.715 281.976,195.100 281.876 C 195.485 281.775,195.170 281.693,194.400 281.693 C 193.630 281.693,193.315 281.775,193.700 281.876 M37.960 282.600 C 38.634 283.905,39.188 284.628,39.185 284.200 C 39.183 283.980,38.814 283.350,38.364 282.800 C 37.821 282.136,37.685 282.069,37.960 282.600 M171.420 282.853 C 172.069 282.992,175.840 283.105,179.800 283.105 C 183.760 283.105,187.528 282.992,188.174 282.853 C 188.819 282.714,185.049 282.600,179.794 282.600 C 174.540 282.600,170.771 282.714,171.420 282.853 M350.800 284.382 C 351.130 284.605,351.745 284.791,352.167 284.794 C 353.190 284.802,352.871 284.573,351.400 284.244 C 350.524 284.048,350.362 284.085,350.800 284.382 M363.800 289.465 C 364.822 290.433,367.333 292.071,366.727 291.374 C 366.357 290.948,365.457 290.259,364.727 289.843 C 363.997 289.427,363.580 289.257,363.800 289.465 M43.396 291.400 C 45.360 294.575,46.626 296.386,46.887 296.393 C 47.044 296.397,46.339 295.185,45.320 293.700 C 43.342 290.818,42.165 289.411,43.396 291.400 M373.639 298.400 C 374.566 299.500,375.400 300.400,375.492 300.400 C 375.804 300.400,372.602 296.434,372.276 296.417 C 372.098 296.408,372.711 297.300,373.639 298.400 M50.000 300.800 C 50.697 301.680,51.357 302.400,51.467 302.400 C 51.577 302.400,51.097 301.680,50.400 300.800 C 49.703 299.920,49.043 299.200,48.933 299.200 C 48.823 299.200,49.303 299.920,50.000 300.800 M377.499 303.968 C 378.103 305.050,378.665 305.868,378.747 305.786 C 378.921 305.612,376.857 302.000,376.583 302.000 C 376.483 302.000,376.895 302.886,377.499 303.968 M55.600 307.547 C 55.600 307.739,57.445 309.777,59.700 312.076 C 61.955 314.374,62.619 314.983,61.176 313.428 C 59.733 311.872,57.888 309.834,57.076 308.899 C 56.264 307.963,55.600 307.355,55.600 307.547 M381.844 315.000 C 382.173 316.471,382.402 316.790,382.394 315.767 C 382.391 315.345,382.205 314.730,381.982 314.400 C 381.685 313.962,381.648 314.124,381.844 315.000 M67.600 320.200 C 69.017 321.630,70.267 322.800,70.377 322.800 C 70.487 322.800,69.417 321.630,68.000 320.200 C 66.583 318.770,65.333 317.600,65.223 317.600 C 65.113 317.600,66.183 318.770,67.600 320.200 M382.944 324.000 C 382.944 326.090,383.012 326.945,383.094 325.900 C 383.176 324.855,383.176 323.145,383.094 322.100 C 383.012 321.055,382.944 321.910,382.944 324.000 M71.887 324.009 C 72.595 324.751,73.242 325.278,73.325 325.179 C 73.408 325.081,72.829 324.473,72.038 323.829 L 70.600 322.658 71.887 324.009 M74.600 326.366 C 75.378 327.261,77.600 328.998,77.600 328.712 C 77.600 328.634,76.745 327.867,75.700 327.008 C 74.655 326.149,74.160 325.860,74.600 326.366 M382.046 332.067 C 382.021 332.434,381.896 333.064,381.770 333.467 C 381.552 334.162,381.563 334.163,381.997 333.487 C 382.248 333.096,382.373 332.466,382.273 332.087 C 382.111 331.468,382.088 331.466,382.046 332.067 M90.000 337.701 C 90.000 337.955,93.096 340.000,93.480 340.000 C 93.644 340.000,93.423 339.758,92.989 339.461 C 91.081 338.159,90.000 337.522,90.000 337.701 M379.072 341.019 C 378.132 342.989,378.264 343.324,379.247 341.462 C 379.693 340.616,379.987 339.854,379.901 339.767 C 379.814 339.681,379.441 340.244,379.072 341.019 M374.000 349.200 C 373.303 350.080,372.823 350.800,372.933 350.800 C 373.043 350.800,373.703 350.080,374.400 349.200 C 375.097 348.320,375.577 347.600,375.467 347.600 C 375.357 347.600,374.697 348.320,374.000 349.200 M113.600 350.800 C 114.370 351.222,115.180 351.566,115.400 351.566 C 115.620 351.566,115.170 351.222,114.400 350.800 C 113.630 350.378,112.820 350.034,112.600 350.034 C 112.380 350.034,112.830 350.378,113.600 350.800 M140.200 360.000 C 140.640 360.189,141.360 360.338,141.800 360.332 C 142.443 360.323,142.404 360.257,141.600 360.000 C 140.232 359.562,139.181 359.562,140.200 360.000 M144.433 360.947 C 144.525 361.028,145.320 361.204,146.200 361.338 C 147.315 361.507,147.558 361.471,147.000 361.219 C 146.232 360.871,144.090 360.644,144.433 360.947 M149.400 362.000 C 151.092 362.431,152.544 362.431,151.200 362.000 C 150.650 361.824,149.750 361.683,149.200 361.687 C 148.302 361.694,148.322 361.726,149.400 362.000 M154.200 362.800 C 155.892 363.231,157.344 363.231,156.000 362.800 C 155.450 362.624,154.550 362.483,154.000 362.487 C 153.102 362.494,153.122 362.526,154.200 362.800 M160.200 363.600 C 160.860 363.768,161.940 363.906,162.600 363.907 C 163.609 363.908,163.545 363.855,162.200 363.577 C 160.174 363.158,158.537 363.177,160.200 363.600 M351.000 363.600 C 350.496 363.817,350.422 363.944,350.800 363.944 C 351.130 363.944,351.760 363.789,352.200 363.600 C 352.704 363.383,352.778 363.256,352.400 363.256 C 352.070 363.256,351.440 363.411,351.000 363.600 M167.505 364.283 C 168.002 364.379,168.722 364.375,169.105 364.275 C 169.487 364.175,169.080 364.096,168.200 364.101 C 167.320 364.105,167.007 364.187,167.505 364.283 M214.100 364.700 C 238.465 364.757,278.335 364.757,302.700 364.700 C 327.065 364.643,307.130 364.596,258.400 364.596 C 209.670 364.596,189.735 364.643,214.100 364.700 " stroke="none" fill="#848484" fill-rule="evenodd"></path><path id="path3" d="M175.100 37.496 C 176.475 37.574,178.725 37.574,180.100 37.496 C 181.475 37.418,180.350 37.354,177.600 37.354 C 174.850 37.354,173.725 37.418,175.100 37.496 M300.112 37.495 C 301.164 37.577,302.784 37.576,303.712 37.492 C 304.640 37.408,303.780 37.341,301.800 37.342 C 299.820 37.343,299.060 37.412,300.112 37.495 M167.905 37.883 C 168.402 37.979,169.122 37.975,169.505 37.875 C 169.887 37.775,169.480 37.696,168.600 37.701 C 167.720 37.705,167.407 37.787,167.905 37.883 M160.600 38.390 C 160.117 38.592,160.751 38.638,162.200 38.507 C 163.520 38.387,164.675 38.224,164.767 38.145 C 165.107 37.849,161.370 38.069,160.600 38.390 M186.433 38.144 C 186.905 38.550,188.843 38.793,188.610 38.416 C 188.468 38.187,187.883 38.000,187.310 38.000 C 186.736 38.000,186.342 38.065,186.433 38.144 M292.400 38.406 C 291.978 38.682,292.215 38.723,293.200 38.542 C 294.925 38.225,295.251 37.998,293.967 38.006 C 293.435 38.009,292.730 38.189,292.400 38.406 M309.233 38.144 C 309.705 38.550,311.643 38.793,311.410 38.416 C 311.268 38.187,310.683 38.000,310.110 38.000 C 309.536 38.000,309.142 38.065,309.233 38.144 M154.821 39.179 C 154.446 39.416,154.870 39.465,156.021 39.318 C 156.999 39.192,157.875 39.025,157.967 38.945 C 158.342 38.619,155.355 38.840,154.821 39.179 M150.400 40.018 C 149.962 40.315,150.124 40.352,151.000 40.156 C 152.471 39.827,152.790 39.598,151.767 39.606 C 151.345 39.609,150.730 39.795,150.400 40.018 M145.800 40.800 C 144.781 41.238,145.832 41.238,147.200 40.800 C 148.004 40.543,148.043 40.477,147.400 40.468 C 146.960 40.462,146.240 40.611,145.800 40.800 M284.400 41.200 C 283.630 41.622,283.180 41.966,283.400 41.966 C 283.620 41.966,284.430 41.622,285.200 41.200 C 285.970 40.778,286.420 40.434,286.200 40.434 C 285.980 40.434,285.170 40.778,284.400 41.200 M142.200 41.600 C 141.111 41.877,141.093 41.907,142.000 41.925 C 142.550 41.935,143.360 41.789,143.800 41.600 C 144.786 41.176,143.866 41.176,142.200 41.600 M137.600 42.818 C 137.162 43.115,137.324 43.152,138.200 42.956 C 139.671 42.627,139.990 42.398,138.967 42.406 C 138.545 42.409,137.930 42.595,137.600 42.818 M202.800 44.908 C 202.800 45.000,203.700 45.834,204.800 46.761 C 205.900 47.689,206.792 48.302,206.783 48.124 C 206.766 47.798,202.800 44.596,202.800 44.908 M325.600 44.908 C 325.600 45.000,326.500 45.834,327.600 46.761 C 328.700 47.689,329.592 48.302,329.583 48.124 C 329.566 47.798,325.600 44.596,325.600 44.908 M272.985 49.300 L 271.000 51.400 273.100 49.415 C 275.051 47.571,275.383 47.200,275.085 47.200 C 275.022 47.200,274.077 48.145,272.985 49.300 M112.100 51.834 C 111.385 52.146,110.800 52.494,110.800 52.607 C 110.800 52.815,113.606 51.727,113.946 51.387 C 114.286 51.047,113.420 51.257,112.100 51.834 M212.204 54.600 C 213.807 56.826,214.250 57.239,213.357 55.673 C 212.941 54.943,212.252 54.043,211.826 53.673 C 211.376 53.282,211.534 53.669,212.204 54.600 M335.004 54.600 C 336.607 56.826,337.050 57.239,336.157 55.673 C 335.741 54.943,335.052 54.043,334.626 53.673 C 334.176 53.282,334.334 53.669,335.004 54.600 M106.700 54.427 C 105.875 54.863,105.200 55.308,105.200 55.418 C 105.200 55.527,105.920 55.249,106.800 54.800 C 107.680 54.351,108.400 53.897,108.400 53.792 C 108.400 53.530,108.397 53.531,106.700 54.427 M268.300 54.614 C 267.301 55.950,267.431 56.323,268.446 55.033 C 268.911 54.442,269.226 53.895,269.146 53.818 C 269.066 53.741,268.685 54.100,268.300 54.614 M263.850 62.791 C 262.947 65.047,263.087 65.383,264.037 63.242 C 264.466 62.275,264.745 61.412,264.658 61.325 C 264.571 61.238,264.208 61.898,263.850 62.791 M85.800 67.035 L 84.600 68.066 85.900 67.206 C 86.615 66.733,87.200 66.268,87.200 66.173 C 87.200 65.873,87.031 65.978,85.800 67.035 M83.000 69.035 L 81.800 70.066 83.100 69.206 C 83.815 68.733,84.400 68.268,84.400 68.173 C 84.400 67.873,84.231 67.978,83.000 69.035 M219.462 72.200 C 219.596 73.080,219.772 73.875,219.853 73.967 C 220.156 74.310,219.929 72.168,219.581 71.400 C 219.329 70.842,219.293 71.085,219.462 72.200 M342.262 72.200 C 342.396 73.080,342.572 73.875,342.653 73.967 C 342.956 74.310,342.729 72.168,342.381 71.400 C 342.129 70.842,342.093 71.085,342.262 72.200 M261.052 72.900 C 260.726 74.118,260.788 83.227,261.128 84.085 C 261.278 84.462,261.400 81.897,261.400 78.385 C 261.400 74.873,261.376 72.000,261.347 72.000 C 261.317 72.000,261.185 72.405,261.052 72.900 M75.789 74.631 L 73.800 76.461 75.900 74.768 C 77.784 73.249,78.238 72.800,77.889 72.800 C 77.828 72.800,76.883 73.624,75.789 74.631 M66.392 83.100 L 62.600 87.000 66.500 83.208 C 68.645 81.122,70.400 79.367,70.400 79.308 C 70.400 79.018,69.914 79.478,66.392 83.100 M219.649 83.400 C 219.616 83.840,219.496 84.650,219.383 85.200 L 219.177 86.200 219.606 85.219 C 219.842 84.679,219.961 83.869,219.872 83.419 C 219.713 82.621,219.707 82.621,219.649 83.400 M342.449 83.400 C 342.416 83.840,342.296 84.650,342.183 85.200 L 341.977 86.200 342.406 85.219 C 342.642 84.679,342.761 83.869,342.672 83.419 C 342.513 82.621,342.507 82.621,342.449 83.400 M59.986 89.500 L 57.800 91.800 60.100 89.614 C 62.237 87.582,62.583 87.200,62.286 87.200 C 62.224 87.200,61.189 88.235,59.986 89.500 M56.426 93.322 L 55.451 94.600 56.726 93.425 C 58.051 92.203,58.203 91.985,57.700 92.022 C 57.535 92.034,56.962 92.619,56.426 93.322 M53.775 96.500 L 52.600 97.800 53.900 96.625 C 55.112 95.530,55.384 95.200,55.075 95.200 C 55.006 95.200,54.421 95.785,53.775 96.500 M266.360 99.000 C 267.034 100.305,267.588 101.028,267.585 100.600 C 267.583 100.380,267.214 99.750,266.764 99.200 C 266.221 98.536,266.085 98.469,266.360 99.000 M212.227 102.200 C 211.640 102.970,211.303 103.598,211.480 103.595 C 211.656 103.592,212.207 102.962,212.704 102.195 C 213.868 100.397,213.600 100.400,212.227 102.200 M335.027 102.200 C 334.440 102.970,334.103 103.598,334.280 103.595 C 334.456 103.592,335.007 102.962,335.504 102.195 C 336.668 100.397,336.400 100.400,335.027 102.200 M268.575 102.532 C 269.191 103.339,269.776 104.000,269.875 104.000 C 270.153 104.000,268.421 101.660,267.909 101.344 C 267.659 101.189,267.959 101.724,268.575 102.532 M273.000 107.600 C 274.083 108.700,275.060 109.600,275.170 109.600 C 275.280 109.600,274.483 108.700,273.400 107.600 C 272.317 106.500,271.340 105.600,271.230 105.600 C 271.120 105.600,271.917 106.500,273.000 107.600 M204.400 110.483 C 202.525 112.200,203.235 111.835,205.514 109.910 C 206.237 109.299,206.687 108.808,206.514 108.817 C 206.341 108.826,205.390 109.576,204.400 110.483 M327.694 110.012 C 325.983 111.568,326.488 111.557,328.261 110.000 C 329.013 109.340,329.487 108.805,329.314 108.812 C 329.141 108.818,328.412 109.358,327.694 110.012 M199.700 113.646 C 198.337 114.519,197.895 115.106,199.100 114.443 C 200.018 113.939,201.456 112.827,201.200 112.819 C 201.090 112.816,200.415 113.188,199.700 113.646 M322.500 113.646 C 321.137 114.519,320.695 115.106,321.900 114.443 C 322.818 113.939,324.256 112.827,324.000 112.819 C 323.890 112.816,323.215 113.188,322.500 113.646 M280.400 113.379 C 280.400 113.489,280.940 113.859,281.600 114.200 C 282.260 114.541,282.800 114.731,282.800 114.621 C 282.800 114.511,282.260 114.141,281.600 113.800 C 280.940 113.459,280.400 113.269,280.400 113.379 M40.953 114.100 C 39.576 116.436,39.486 116.635,40.187 115.800 C 41.000 114.832,41.700 113.600,41.438 113.600 C 41.333 113.600,41.115 113.825,40.953 114.100 M189.200 118.018 C 188.762 118.315,188.924 118.352,189.800 118.156 C 191.271 117.827,191.590 117.598,190.567 117.606 C 190.145 117.609,189.530 117.795,189.200 118.018 M311.800 118.000 C 310.781 118.438,311.832 118.438,313.200 118.000 C 314.004 117.743,314.043 117.677,313.400 117.668 C 312.960 117.662,312.240 117.811,311.800 118.000 M177.000 119.600 L 175.400 119.886 177.100 119.943 C 178.035 119.974,178.800 119.820,178.800 119.600 C 178.800 119.380,178.755 119.226,178.700 119.257 C 178.645 119.288,177.880 119.442,177.000 119.600 M168.200 120.400 C 167.111 120.677,167.093 120.707,168.000 120.725 C 168.550 120.735,169.360 120.589,169.800 120.400 C 170.786 119.976,169.866 119.976,168.200 120.400 M163.400 121.200 C 162.293 121.482,162.277 121.509,163.200 121.547 C 163.750 121.569,164.470 121.413,164.800 121.200 C 165.481 120.760,165.129 120.760,163.400 121.200 M35.800 122.800 C 35.459 123.460,35.269 124.000,35.379 124.000 C 35.489 124.000,35.859 123.460,36.200 122.800 C 36.541 122.140,36.731 121.600,36.621 121.600 C 36.511 121.600,36.141 122.140,35.800 122.800 M137.700 131.246 C 136.337 132.119,135.895 132.706,137.100 132.043 C 138.018 131.539,139.456 130.427,139.200 130.419 C 139.090 130.416,138.415 130.788,137.700 131.246 M28.379 138.255 C 28.158 138.836,28.052 139.385,28.143 139.476 C 28.233 139.567,28.499 139.092,28.733 138.420 C 29.253 136.928,28.939 136.782,28.379 138.255 M125.978 139.900 L 124.600 141.400 126.100 140.022 C 126.925 139.263,127.600 138.588,127.600 138.522 C 127.600 138.216,127.262 138.504,125.978 139.900 M121.874 143.524 C 121.063 144.354,120.400 145.140,120.400 145.270 C 120.400 145.400,121.124 144.781,122.010 143.896 C 122.895 143.011,123.559 142.225,123.484 142.150 C 123.409 142.076,122.685 142.694,121.874 143.524 M117.804 147.996 C 117.174 148.654,116.735 149.256,116.829 149.334 C 116.923 149.412,117.513 148.874,118.139 148.138 C 119.554 146.477,119.345 146.388,117.804 147.996 M23.029 153.029 C 22.881 153.615,22.838 154.172,22.932 154.266 C 23.027 154.360,23.224 153.958,23.371 153.371 C 23.519 152.785,23.562 152.228,23.468 152.134 C 23.373 152.040,23.176 152.442,23.029 153.029 M112.975 154.268 C 112.359 155.076,112.059 155.611,112.309 155.456 C 112.821 155.140,114.553 152.800,114.275 152.800 C 114.176 152.800,113.591 153.461,112.975 154.268 M182.900 159.076 C 183.285 159.176,183.915 159.176,184.300 159.076 C 184.685 158.975,184.370 158.893,183.600 158.893 C 182.830 158.893,182.515 158.975,182.900 159.076 M295.800 159.200 C 294.137 159.623,295.774 159.642,297.800 159.223 C 299.145 158.945,299.209 158.892,298.200 158.893 C 297.540 158.894,296.460 159.032,295.800 159.200 M307.400 159.223 C 309.426 159.642,311.063 159.623,309.400 159.200 C 308.740 159.032,307.660 158.894,307.000 158.893 C 305.991 158.892,306.055 158.945,307.400 159.223 M168.400 160.000 C 167.596 160.257,167.557 160.323,168.200 160.332 C 168.640 160.338,169.360 160.189,169.800 160.000 C 170.819 159.562,169.768 159.562,168.400 160.000 M292.000 160.000 C 291.176 160.264,291.141 160.326,291.800 160.354 C 292.240 160.373,292.870 160.213,293.200 160.000 C 293.901 159.547,293.414 159.547,292.000 160.000 M312.000 159.982 C 312.330 160.205,312.945 160.391,313.367 160.394 C 314.390 160.402,314.071 160.173,312.600 159.844 C 311.724 159.648,311.562 159.685,312.000 159.982 M20.667 161.467 C 20.520 161.613,20.411 162.108,20.425 162.567 C 20.449 163.333,20.482 163.323,20.834 162.442 C 21.226 161.463,21.144 160.989,20.667 161.467 M322.200 163.807 C 322.640 164.166,323.360 164.635,323.800 164.851 L 324.600 165.244 323.800 164.593 C 323.360 164.234,322.640 163.765,322.200 163.549 L 321.400 163.156 322.200 163.807 M19.849 165.015 C 19.712 165.373,19.618 166.056,19.641 166.533 C 19.667 167.081,19.803 166.886,20.010 166.003 C 20.360 164.516,20.265 163.933,19.849 165.015 M277.600 167.249 C 276.206 168.471,276.205 168.472,277.488 167.619 C 278.196 167.148,278.882 166.591,279.012 166.381 C 279.397 165.757,279.077 165.954,277.600 167.249 M207.800 170.800 C 209.550 172.560,211.071 174.000,211.181 174.000 C 211.291 174.000,209.950 172.560,208.200 170.800 C 206.450 169.040,204.929 167.600,204.819 167.600 C 204.709 167.600,206.050 169.040,207.800 170.800 M273.785 170.500 L 271.800 172.600 273.900 170.615 C 275.851 168.771,276.183 168.400,275.885 168.400 C 275.822 168.400,274.877 169.345,273.785 170.500 M331.400 170.800 C 332.706 172.120,333.865 173.200,333.975 173.200 C 334.085 173.200,333.106 172.120,331.800 170.800 C 330.494 169.480,329.335 168.400,329.225 168.400 C 329.115 168.400,330.094 169.480,331.400 170.800 M335.200 175.200 C 335.897 176.080,336.540 176.800,336.630 176.800 C 336.947 176.800,334.595 173.630,334.266 173.615 C 334.083 173.607,334.503 174.320,335.200 175.200 M336.815 177.400 C 336.817 177.620,337.186 178.250,337.636 178.800 C 338.179 179.464,338.315 179.531,338.040 179.000 C 337.366 177.695,336.812 176.972,336.815 177.400 M17.000 182.000 C 16.846 182.910,16.804 183.738,16.907 183.840 C 17.010 183.943,17.213 183.277,17.360 182.360 C 17.507 181.443,17.548 180.615,17.453 180.520 C 17.358 180.424,17.154 181.090,17.000 182.000 M100.229 182.629 C 100.081 183.215,100.038 183.772,100.132 183.866 C 100.227 183.960,100.424 183.558,100.571 182.971 C 100.719 182.385,100.762 181.828,100.668 181.734 C 100.573 181.640,100.376 182.042,100.229 182.629 M217.429 185.600 C 217.576 186.150,217.864 186.870,218.067 187.200 C 218.325 187.617,218.357 187.495,218.171 186.800 C 218.024 186.250,217.736 185.530,217.533 185.200 C 217.275 184.783,217.243 184.905,217.429 185.600 M99.293 188.400 C 99.293 189.170,99.375 189.485,99.476 189.100 C 99.576 188.715,99.576 188.085,99.476 187.700 C 99.375 187.315,99.293 187.630,99.293 188.400 M16.256 189.845 C 16.115 190.872,16.027 193.172,16.061 194.956 C 16.115 197.844,16.154 197.651,16.420 193.200 C 16.736 187.917,16.679 186.756,16.256 189.845 M218.468 188.600 C 218.462 189.040,218.611 189.760,218.800 190.200 C 219.238 191.219,219.238 190.168,218.800 188.800 C 218.543 187.996,218.477 187.957,218.468 188.600 M219.268 192.600 C 219.274 193.040,219.424 193.850,219.600 194.400 L 219.920 195.400 219.932 194.400 C 219.938 193.850,219.789 193.040,219.600 192.600 L 219.256 191.800 219.268 192.600 M98.476 194.800 C 98.431 196.230,98.313 198.660,98.214 200.200 L 98.034 203.000 98.430 200.200 C 98.647 198.660,98.765 196.230,98.691 194.800 L 98.557 192.200 98.476 194.800 M343.082 194.200 C 343.209 195.300,343.377 196.275,343.456 196.367 C 343.755 196.714,343.528 193.764,343.197 193.000 C 342.974 192.485,342.933 192.913,343.082 194.200 M261.856 194.084 C 261.721 194.588,261.633 195.810,261.660 196.800 C 261.703 198.374,261.747 198.273,262.009 196.000 C 262.324 193.266,262.267 192.550,261.856 194.084 M138.252 194.500 C 137.926 195.716,137.988 204.427,138.328 205.285 C 138.478 205.662,138.600 203.187,138.600 199.785 C 138.600 196.383,138.576 193.600,138.547 193.600 C 138.517 193.600,138.385 194.005,138.252 194.500 M261.331 202.200 C 261.333 203.740,261.405 204.321,261.492 203.491 C 261.579 202.661,261.577 201.401,261.489 200.691 C 261.400 199.981,261.329 200.660,261.331 202.200 M98.542 206.600 C 98.541 208.580,98.608 209.440,98.692 208.512 C 98.776 207.584,98.777 205.964,98.695 204.912 C 98.612 203.860,98.543 204.620,98.542 206.600 M16.030 207.833 C 16.046 209.795,16.199 212.210,16.370 213.200 C 16.553 214.264,16.600 212.873,16.485 209.800 C 16.260 203.790,15.986 202.607,16.030 207.833 M219.450 205.650 C 219.309 206.353,219.269 207.002,219.359 207.092 C 219.450 207.183,219.648 206.691,219.800 206.000 C 219.952 205.309,219.993 204.659,219.891 204.558 C 219.789 204.456,219.591 204.947,219.450 205.650 M260.934 208.000 C 260.934 209.650,261.005 210.325,261.091 209.500 C 261.178 208.675,261.178 207.325,261.091 206.500 C 261.005 205.675,260.934 206.350,260.934 208.000 M138.806 208.233 C 138.809 208.655,138.995 209.270,139.218 209.600 C 139.515 210.038,139.552 209.876,139.356 209.000 C 139.027 207.529,138.798 207.210,138.806 208.233 M218.629 209.829 C 218.481 210.415,218.438 210.972,218.532 211.066 C 218.627 211.160,218.824 210.758,218.971 210.171 C 219.119 209.585,219.162 209.028,219.068 208.934 C 218.973 208.840,218.776 209.242,218.629 209.829 M99.293 214.000 C 99.293 214.770,99.375 215.085,99.476 214.700 C 99.576 214.315,99.576 213.685,99.476 213.300 C 99.375 212.915,99.293 213.230,99.293 214.000 M260.101 215.000 C 260.105 215.880,260.187 216.193,260.283 215.695 C 260.379 215.198,260.375 214.478,260.275 214.095 C 260.175 213.713,260.096 214.120,260.101 215.000 M100.056 218.800 C 100.056 219.130,100.211 219.760,100.400 220.200 C 100.617 220.704,100.744 220.778,100.744 220.400 C 100.744 220.070,100.589 219.440,100.400 219.000 C 100.183 218.496,100.056 218.422,100.056 218.800 M259.029 219.829 C 258.881 220.415,258.838 220.972,258.932 221.066 C 259.027 221.160,259.224 220.758,259.371 220.171 C 259.519 219.585,259.562 219.028,259.468 218.934 C 259.373 218.840,259.176 219.242,259.029 219.829 M146.730 225.100 C 147.161 225.705,147.928 226.560,148.434 227.000 C 148.940 227.440,148.651 226.945,147.792 225.900 C 146.073 223.808,145.503 223.379,146.730 225.100 M208.581 228.100 L 207.000 229.800 208.700 228.219 C 210.281 226.748,210.584 226.400,210.281 226.400 C 210.216 226.400,209.451 227.165,208.581 228.100 M151.200 229.725 C 151.200 229.794,151.785 230.379,152.500 231.025 L 153.800 232.200 152.625 230.900 C 151.530 229.688,151.200 229.416,151.200 229.725 M200.976 234.187 C 200.549 234.510,200.380 234.775,200.600 234.775 C 200.820 234.775,201.349 234.510,201.776 234.187 C 202.204 233.864,202.373 233.600,202.153 233.600 C 201.933 233.600,201.404 233.864,200.976 234.187 M157.600 234.764 C 158.150 235.214,158.780 235.583,159.000 235.585 C 159.428 235.588,158.705 235.034,157.400 234.360 C 156.869 234.085,156.936 234.221,157.600 234.764 M19.606 236.033 C 19.609 236.565,19.789 237.270,20.006 237.600 C 20.282 238.022,20.323 237.785,20.142 236.800 C 19.825 235.075,19.598 234.749,19.606 236.033 M20.428 239.876 C 20.413 240.358,20.580 240.864,20.800 241.000 C 21.273 241.292,21.273 240.901,20.800 239.800 C 20.469 239.029,20.455 239.031,20.428 239.876 M187.800 239.600 C 186.693 239.882,186.677 239.909,187.600 239.947 C 188.150 239.969,188.870 239.813,189.200 239.600 C 189.881 239.160,189.529 239.160,187.800 239.600 M176.500 240.697 C 177.985 240.774,180.415 240.774,181.900 240.697 C 183.385 240.620,182.170 240.557,179.200 240.557 C 176.230 240.557,175.015 240.620,176.500 240.697 M113.991 249.588 C 114.457 250.241,115.042 250.902,115.291 251.056 C 115.541 251.211,115.241 250.676,114.625 249.868 C 113.288 248.115,112.784 247.892,113.991 249.588 M244.175 251.068 C 243.559 251.876,243.259 252.411,243.509 252.256 C 244.021 251.940,245.753 249.600,245.475 249.600 C 245.376 249.600,244.791 250.261,244.175 251.068 M116.811 253.115 C 116.825 253.491,119.630 256.503,119.804 256.330 C 119.878 256.256,119.232 255.438,118.369 254.513 C 117.506 253.588,116.805 252.959,116.811 253.115 M241.578 254.300 L 240.200 255.800 241.700 254.422 C 243.096 253.138,243.384 252.800,243.078 252.800 C 243.012 252.800,242.337 253.475,241.578 254.300 M235.600 260.492 C 233.070 262.941,232.260 263.846,233.800 262.504 C 236.566 260.094,240.743 255.981,240.385 256.020 C 240.283 256.031,238.130 258.044,235.600 260.492 M121.800 258.800 C 122.883 259.900,123.860 260.800,123.970 260.800 C 124.080 260.800,123.283 259.900,122.200 258.800 C 121.117 257.700,120.140 256.800,120.030 256.800 C 119.920 256.800,120.717 257.700,121.800 258.800 M125.200 261.725 C 125.200 261.794,125.785 262.379,126.500 263.025 L 127.800 264.200 126.625 262.900 C 125.530 261.688,125.200 261.416,125.200 261.725 M28.218 263.700 C 28.368 264.195,28.655 264.776,28.856 264.991 C 29.057 265.206,29.019 264.801,28.772 264.091 C 28.265 262.638,27.797 262.308,28.218 263.700 M128.400 264.525 C 128.400 264.624,129.061 265.209,129.868 265.825 C 130.676 266.441,131.211 266.741,131.056 266.491 C 130.740 265.979,128.400 264.247,128.400 264.525 M226.931 267.565 C 223.434 270.094,222.978 270.447,223.600 270.149 C 224.693 269.624,228.746 266.811,228.999 266.402 C 229.351 265.833,229.240 265.895,226.931 267.565 M133.167 268.145 C 133.700 268.801,135.200 269.793,135.200 269.489 C 135.200 269.413,134.615 268.922,133.900 268.399 C 133.096 267.810,132.816 267.713,133.167 268.145 M35.800 279.600 C 36.141 280.260,36.511 280.800,36.621 280.800 C 36.731 280.800,36.541 280.260,36.200 279.600 C 35.859 278.940,35.489 278.400,35.379 278.400 C 35.269 278.400,35.459 278.940,35.800 279.600 M163.000 281.200 C 163.440 281.389,164.160 281.538,164.600 281.532 C 165.243 281.523,165.204 281.457,164.400 281.200 C 163.032 280.762,161.981 280.762,163.000 281.200 M195.200 281.200 C 194.396 281.457,194.357 281.523,195.000 281.532 C 195.440 281.538,196.160 281.389,196.600 281.200 C 197.619 280.762,196.568 280.762,195.200 281.200 M167.800 282.000 C 168.460 282.168,169.450 282.305,170.000 282.305 C 170.892 282.305,170.870 282.272,169.800 282.000 C 169.140 281.832,168.150 281.695,167.600 281.695 C 166.708 281.695,166.730 281.728,167.800 282.000 M189.800 282.000 C 188.730 282.272,188.708 282.305,189.600 282.305 C 190.150 282.305,191.140 282.168,191.800 282.000 C 192.870 281.728,192.892 281.695,192.000 281.695 C 191.450 281.695,190.460 281.832,189.800 282.000 M176.500 282.698 C 178.425 282.771,181.575 282.771,183.500 282.698 C 185.425 282.625,183.850 282.565,180.000 282.565 C 176.150 282.565,174.575 282.625,176.500 282.698 M344.305 283.083 C 344.802 283.179,345.522 283.175,345.905 283.075 C 346.287 282.975,345.880 282.896,345.000 282.901 C 344.120 282.905,343.807 282.987,344.305 283.083 M349.600 283.755 C 349.600 283.840,350.130 283.987,350.779 284.082 C 351.427 284.177,351.867 284.108,351.755 283.928 C 351.557 283.607,349.600 283.450,349.600 283.755 M359.633 286.951 C 360.042 287.321,363.200 288.795,363.200 288.616 C 363.200 288.389,360.181 286.800,359.749 286.800 C 359.594 286.800,359.542 286.868,359.633 286.951 M367.782 292.088 C 368.672 292.906,369.549 293.581,369.731 293.588 C 369.913 293.595,369.463 293.116,368.731 292.524 C 366.487 290.711,366.083 290.525,367.782 292.088 M51.200 302.800 C 51.897 303.680,52.557 304.400,52.667 304.400 C 52.777 304.400,52.297 303.680,51.600 302.800 C 50.903 301.920,50.243 301.200,50.133 301.200 C 50.023 301.200,50.503 301.920,51.200 302.800 M54.800 307.058 C 54.800 307.274,55.385 307.979,56.100 308.625 L 57.400 309.800 56.200 308.402 C 55.540 307.633,54.955 306.928,54.900 306.835 C 54.845 306.743,54.800 306.843,54.800 307.058 M60.400 313.400 C 61.817 314.830,63.067 316.000,63.177 316.000 C 63.287 316.000,62.217 314.830,60.800 313.400 C 59.383 311.970,58.133 310.800,58.023 310.800 C 57.913 310.800,58.983 311.970,60.400 313.400 M381.444 312.200 C 381.773 313.671,382.002 313.990,381.994 312.967 C 381.991 312.545,381.805 311.930,381.582 311.600 C 381.285 311.162,381.248 311.324,381.444 312.200 M382.487 316.600 C 382.491 317.040,382.632 317.940,382.800 318.600 C 383.074 319.678,383.106 319.698,383.113 318.800 C 383.117 318.250,382.976 317.350,382.800 316.800 C 382.549 316.016,382.481 315.973,382.487 316.600 M64.901 318.100 C 65.208 318.375,66.706 319.770,68.230 321.200 L 71.000 323.799 68.010 320.700 C 66.366 318.995,64.868 317.600,64.681 317.600 C 64.495 317.600,64.594 317.825,64.901 318.100 M382.640 330.040 C 382.493 330.957,382.452 331.785,382.547 331.880 C 382.642 331.976,382.846 331.310,383.000 330.400 C 383.154 329.490,383.196 328.662,383.093 328.560 C 382.990 328.457,382.787 329.123,382.640 330.040 M84.433 334.530 C 84.525 334.601,85.230 335.066,86.000 335.563 L 87.400 336.466 86.200 335.435 C 85.540 334.868,84.835 334.403,84.633 334.402 C 84.432 334.401,84.342 334.458,84.433 334.530 M381.646 334.867 C 381.621 335.234,381.496 335.864,381.370 336.267 C 381.152 336.962,381.163 336.963,381.597 336.287 C 381.848 335.896,381.973 335.266,381.873 334.887 C 381.711 334.268,381.688 334.266,381.646 334.867 M90.000 338.364 C 90.550 338.814,91.180 339.183,91.400 339.185 C 91.828 339.188,91.105 338.634,89.800 337.960 C 89.269 337.685,89.336 337.821,90.000 338.364 M93.600 340.579 C 93.600 340.689,94.140 341.059,94.800 341.400 C 95.460 341.741,96.000 341.931,96.000 341.821 C 96.000 341.711,95.460 341.341,94.800 341.000 C 94.140 340.659,93.600 340.469,93.600 340.579 M378.153 343.700 C 376.776 346.036,376.686 346.235,377.387 345.400 C 378.200 344.432,378.900 343.200,378.638 343.200 C 378.533 343.200,378.315 343.425,378.153 343.700 M106.000 347.379 C 106.000 347.489,106.540 347.859,107.200 348.200 C 107.860 348.541,108.400 348.731,108.400 348.621 C 108.400 348.511,107.860 348.141,107.200 347.800 C 106.540 347.459,106.000 347.269,106.000 347.379 M374.155 349.481 C 373.307 350.516,372.822 351.234,373.077 351.076 C 373.621 350.740,376.155 347.600,375.882 347.600 C 375.780 347.600,375.003 348.447,374.155 349.481 M145.800 361.600 C 145.936 361.820,146.442 361.987,146.924 361.972 C 147.769 361.945,147.771 361.931,147.000 361.600 C 145.899 361.127,145.508 361.127,145.800 361.600 M150.000 362.405 C 150.330 362.616,151.125 362.791,151.767 362.794 C 153.314 362.802,152.977 362.571,151.000 362.268 C 149.910 362.101,149.591 362.145,150.000 362.405 M155.900 363.482 C 156.395 363.578,157.205 363.578,157.700 363.482 C 158.195 363.387,157.790 363.309,156.800 363.309 C 155.810 363.309,155.405 363.387,155.900 363.482 M352.400 363.618 C 351.962 363.915,352.124 363.952,353.000 363.756 C 354.471 363.427,354.790 363.198,353.767 363.206 C 353.345 363.209,352.730 363.395,352.400 363.618 M162.705 364.283 C 163.202 364.379,163.922 364.375,164.305 364.275 C 164.687 364.175,164.280 364.096,163.400 364.101 C 162.520 364.105,162.207 364.187,162.705 364.283 M167.505 364.683 C 168.002 364.779,168.722 364.775,169.105 364.675 C 169.487 364.575,169.080 364.496,168.200 364.501 C 167.320 364.505,167.007 364.587,167.505 364.683 " stroke="none" fill="#a4a4a4" fill-rule="evenodd"></path><path id="path4" d="M170.500 37.876 C 170.885 37.976,171.515 37.976,171.900 37.876 C 172.285 37.775,171.970 37.693,171.200 37.693 C 170.430 37.693,170.115 37.775,170.500 37.876 M173.505 119.883 C 174.002 119.979,174.722 119.975,175.105 119.875 C 175.487 119.775,175.080 119.696,174.200 119.701 C 173.320 119.705,173.007 119.787,173.505 119.883 M16.140 201.200 C 16.140 203.070,16.209 203.835,16.293 202.900 C 16.377 201.965,16.377 200.435,16.293 199.500 C 16.209 198.565,16.140 199.330,16.140 201.200 " stroke="none" fill="#8c8c8c" fill-rule="evenodd"></path></g></svg>